<?xml version="1.0" encoding="UTF-8"?>
<svg id="Layer_2" data-name="Layer 2" xmlns="http://www.w3.org/2000/svg" viewBox="0 0 401.59 382.08">
  <defs>
    <style>
      .cls-1 {
        fill: #686e73;
      }

      .cls-2 {
        fill: #9da0a3;
      }

      .cls-3 {
        fill: #a4a6a9;
      }

      .cls-4 {
        fill: #fff;
        font-family: Inter-Medium, Inter;
        font-size: 33px;
        font-weight: 500;
      }

      .cls-5 {
        fill: #a8abad;
      }

      .cls-6 {
        fill: #fcfcfc;
      }

      .cls-7 {
        fill: #acaeb0;
      }

      .cls-8 {
        fill: #5a5f64;
      }

      .cls-9 {
        fill: #f6f6f6;
      }

      .cls-10 {
        fill: #575d62;
      }

      .cls-11 {
        fill: #60656a;
      }

      .cls-12 {
        fill: #8fc0e1;
      }

      .cls-13 {
        fill: #4c5258;
      }

      .cls-14 {
        fill: #4e545a;
      }

      .cls-15 {
        fill: #666c71;
      }

      .cls-16 {
        fill: #52585d;
      }

      .cls-17 {
        fill: #575c62;
      }

      .cls-18 {
        fill: #fbfbfb;
      }

      .cls-19 {
        fill: #c7c8c9;
      }

      .cls-20 {
        fill: #565a60;
      }

      .cls-21 {
        fill: #faaa18;
      }

      .cls-22 {
        fill: #8dd5ac;
      }

      .cls-23 {
        fill: #53595e;
      }

      .cls-24 {
        fill: #f2f2f3;
      }

      .cls-25 {
        fill: #abadaf;
      }

      .cls-26 {
        fill: #555a60;
      }

      .cls-27 {
        fill: #b1b3b5;
      }

      .cls-28 {
        fill: #4f565c;
      }

      .cls-29 {
        fill: #676e73;
      }

      .cls-30 {
        fill: #00ad57;
      }

      .cls-31 {
        fill: #0081c5;
      }

      .cls-32 {
        fill: #f3f3f4;
      }

      .cls-33 {
        fill: #4b5056;
      }

      .cls-34 {
        fill: #a7aaac;
      }

      .cls-35 {
        fill: #8b8e92;
      }

      .cls-36 {
        fill: #a3a6a9;
      }

      .cls-37 {
        fill: #bdbfc0;
      }

      .cls-38 {
        fill: #ef4931;
      }

      .cls-39 {
        fill: #fefefe;
      }

      .cls-40 {
        fill: #4d5258;
      }

      .cls-41 {
        fill: #4c5157;
      }

      .cls-42 {
        fill: #a0a3a5;
      }

      .cls-43 {
        fill: #f9fafa;
      }
    </style>
  </defs>
  <g id="Layer_1-2" data-name="Layer 1">
    <g>
      <path class="cls-1" d="M7.39.17L392.34.03c4.58-.44,8.87,4.49,9.24,8.75v362.54c.21,5.31-4.38,10.58-9.74,10.75H10.25c-4.31.2-7.13-2.84-9.45-6.04C-.47,254.07.21,131.87.01,9.78,0,5.26,3.24,1.55,7.39.17Z"/>
      <path class="cls-39" d="M3.03,7.79c.29-1.36,4.35-5.32,6.22-4.77h383.1c1.71-.79,6.22,3.85,6.22,4.77v294.5H3.03V7.79Z"/>
      <path class="cls-15" d="M1.53,376.23l.76-2.34c-.05-22.29-.03-44.56.07-66.81l.67-.35.48-1c129.82.02,264.58.02,394.43,0l.63,1,.67.09c.1,22.74.13,45.48.1,68.23l.73.68c-.82,2.98-3.01,4.94-5.99,6-127.08.47-259.43.47-386.55,0-2.08-.57-2.47-.91-4-2.5-.29-.9-.65-1.54-1.5-2-.15-.31-.38-.37-.5-1Z"/>
      <path class="cls-28" d="M2.53,303.04c.73.27,1.36.65,2.21.52h391.6s2.72-.52,2.72-.52c.88-1.54,1.25-.92,1.26.69.15,23.63.06,47.23-.26,70.81-1.12.84-1.52,0-1.52-1.23l.02-67.77H3.03l.03,67.77-1.52,1.73c-.03-.16.02-.34,0-.5-.42-24.11-.57-48.25-.44-72.43.91-.82,1.22-.15,1.44.93Z"/>
      <path class="cls-29" d="M400.06,374.54l.04-70.79c.04-.71-.4-.82-1.04-.71l-.22-296.03c-.29-.93-2.44-3.08-3.29-3.7-.98-.72-2.77-.56-2.98-2.01,3.36-1.26,5.91,2.51,7.73,4.76l.31,366.79c.26.72-.43,1.32-.54,1.69Z"/>
      <path class="cls-1" d="M1.53,374.54c-.83-.52-.5-1.9-.51-2.74-1.28-121.32,1-242.71-.02-364.04.26-1.93,3.55-6.07,5.38-6.61.56-.17,2.65-.34,2.64.15-.02,1.32-2.08,1.35-2.98,2.01s-3.01,2.78-3.29,3.7l-.22,296.03c-.33-.12-.97-.83-1-.25v71.75Z"/>
      <path class="cls-1" d="M394.07,380.54c-.42.15-.92.79-1.69.54H9.21c-.72.26-1.32-.43-1.69-.54h386.55Z"/>
      <path class="cls-1" d="M3.53,378.04c-.56-.58-1.15-1.27-1.5-2,1.29-.05,1.64.83,1.5,2Z"/>
      <path class="cls-38" d="M168.33,108.04c-.17.25-.35.48-.58.65-.2.16-.39.27-.56.25-2.13-.37-18.46-12.95-18.79-14.27l.45-2.12c14.34-28.36,49.98-40.32,78.86-26.7,2.6,1.23,12.69,7.52,13.81,9.71.2.38.33.61,0,.99-3.26,2.09-13.62,15.17-16.12,15.92-2.18.65-4.83-2.73-6.88-3.92-12.3-7.11-28.71-4.91-39.22,4.25-3.74,3.26-9.46,10.82-10.98,15.26Z"/>
      <path class="cls-30" d="M167.83,133.54c.03.08.77.36.93.79,2.4,6.18,4.93,9.14,9.55,13.71,11.12,11.08,30.41,11.89,43.65,3.89l.79.11.98-.5,17.64,13.85-.15,1.16c-14.56,14.54-39.38,17.97-58.84,11.35-13.48-4.59-20.77-11.61-29.71-22.25-1.25-1.49-6.3-7.57-3.35-8.59l.1-1.15c5.5-4.72,11.27-9.01,17.29-12.88l1.09.53Z"/>
      <path class="cls-21" d="M168.33,108.04c-2.76,8.03-2.25,13.78-.55,21.8.24,1.13-.2,2.92.05,3.7l-5.24,3c-2.54,1.94-11.09,9.78-13.23,10.5-.55,1.36-1.05,1.36-1.5,0-7.66-19.52-8.75-35.23,1-54.5-.17,1.2.29,1.5,1.03,2.22,3.56,3.44,10.63,8.77,14.79,11.7,1.11.78,2.18,1.68,3.66,1.59Z"/>
      <path class="cls-17" d="M210.03,216.04h12.49c.2,0,2.89,1.88,3.27,2.23,1.57,1.48,2.97,3.82,3.02,6.02.08,3.8-3.94,8.34-7.78,8.75-1.38.15-7.74-.62-7.74,1.25v10c0,1.3-4,.76-4-.5v-27c0-.14.58-.5.75-.75Z"/>
      <path class="cls-12" d="M242.25,166.54h-.5l.24-1.87c12.96-13.53,19.53-35.08,14.71-53.11l.28-1.02-.35,1h-52.48l-.61-1c.74,1.08.43,1.29-.75.75.25-.02.49-.02.67.09.86.51.46,17.38.33,19.83l-1,.59c1.08-.74,1.29-.43.75.75.04-.39.18-.99.46-1,7.94-.31,17.04-.29,25,0,2.07-.36,3.4-.03,4.01,1,1.06-1.02,1.49-.2,1.97.9,1.8,4.12-7.48,16.64-11.17,19.07l-1.04-.47c-8.8,6.33-25.28,7.29-35.09,2.88-4.41-1.98-6.02-3.59-9.36-6.88,2.3,1.09,3.63,2.96,5.97,4.27,10.35,5.78,26.81,6,36.65-.34,6.46-4.16,10.84-10.97,12.31-18.43h-30.21c-.09,0-.88-.77-.99-1.01-.45-.95-.55-18.7-.28-20.77.11-.85.19-1.52,1.02-1.98h55.44c2.14,1.27,2.2,15.23,1.99,18-1.18,14.99-7.18,28.26-17.97,38.75Z"/>
      <path class="cls-11" d="M138.22,225.19c.22.16,3.19,3.81,3.46,4.28,1.43,2.48,1.48,4.81.96,7.6-1.53,8.15-11.69,11.03-17.94,5.9-8.09-6.64-1.5-21.43,9.39-19.4.28.05,3.94,1.49,4.13,1.62Z"/>
      <path class="cls-26" d="M286.19,244.29c-.43,1.4-3.53,1.3-3.96-1.53-.47-3.07-.41-12.78-.04-15.98.18-1.59.73-3.25,2.65-2.67.86.26,1.09,1.57,2.56,1.44,2.15-.19,3.05-3.1,7.8-1.79,2.24.62,5.47,4.18,5.47,6.52v13.5c0,1.52-4,1.52-4,0v-13c0-.4-1.9-3.22-2.5-3.49-3.13-1.42-7.98,2.21-7.98,4.99,0,2.41.49,10.43,0,12Z"/>
      <path class="cls-27" d="M94.17,228.54c2.52.71.51,7.91-.27,9.73-4.65,10.84-20.63,10.16-26.63.7-8.7-13.72,6.02-29.9,20.12-23.15.61.29,3.67,2.64,3.79,3.16.19.8-.76,3.21-1.59,3.49-2.41.8-2.93-1.66-4.63-2.21-2.03-.66-7.44-.66-9.39.15-1.65.69-5.27,5.08-5.59,6.9-.7,4.01-.1,9.42,3.7,11.73,2.43,1.48,6.59,2.58,9.38,1.86.89-.23,5.36-2.81,5.89-3.61.47-.72,1.46-3.77.23-3.77h-8.49c-1.09,0-1.09-5,0-5,2.87,0,11.44-.57,13.48,0Z"/>
      <path class="cls-37" d="M268.71,228.04h-7.74c-.72,0-3.75,3.36-3.75,3.75v13.5c0,.9-3.6,1.24-4.54.05-1.38-1.75.11-17.1-.46-20.44,2.64-3.35,4.67.56,5.25.57.26,0,3.43-2.28,4.55-2.43,1.77-.24,2.99,1.94,5.85.41,2.18-1.17-1.13-5.94,3.59-5.95,4.17-.01,2.38,4.36,3.94,5.61,1.26,1.01,4.13-.48,4.3,2.74.18,3.41-4.37,1.33-4.93,3.02-.3.92-.26,9.08-.09,10.45.41,3.39,5.24.19,5.02,3.93-.24,4.15-6.24,3.18-8.47,1.02-.17-.17-2.52-3.26-2.52-3.48v-12.75Z"/>
      <path class="cls-8" d="M327.15,224.79c.75-2.44,4.23.76,4.73.76.86,0,5.85-4.38,7.5-1.01,2.31,4.71-2.59,2.69-4.22,3.27-.89.32-4.02,3.18-4.02,3.99v12.5c0,1.05-4,1.05-4,0v-19.5Z"/>
      <path class="cls-34" d="M152.21,223.15c1.04-.3,4.19-.25,5.28,0,1.33.3,2.19,1.91,3.1,1.91,1.21,0,1.63-1.91,2.78-1.81.9.08,2.96.95,2.97,2.04-.96,7.15,2.63,22.06-3.54,26.96-4.15,3.3-12.2,3.03-15.71-1.19-2.45-2.95-1.22-4.75,2.52-4.02,1.82.36,2.1,4.26,6.96,3.48,1.93-.31,5.89-3.45,5.23-5.65-.74-2.44-3.08.95-4.21,1.17-10.36,1.97-16-9.76-10.82-18.33.86-1.42,3.97-4.13,5.44-4.55Z"/>
      <path class="cls-22" d="M149.35,147.04c-1.69,2.75.54,3.22,1.5,4.75,18.96,30.26,57.41,37.77,87.06,17.66,1.29-.87,2.31-2.12,3.34-2.91.17-.44.33-.44.5,0h.5c-19.73,19.19-54.44,19.75-76.16,3.5-6.03-4.51-16.01-14.9-18.47-21.96-.15-.43.26-.99.24-1.04.45-.08,1.14.12,1.5,0Z"/>
      <path class="cls-3" d="M231.91,242.89c-.29-.39-1.7-4.08-1.65-4.56.03-.28,1.33-3.1,1.57-3.46,1.72-2.58,6.42-4.82,9.44-4.13.92.21,3.57,2.44,3.48.54-.15-3.39-3.94-4.28-6.75-3.73-1.37.27-1.63,1.59-2.6,1.88-4.26,1.3-4.98-2.36-1.6-4.6,3.93-2.61,9.34-2.68,12.97.43,4.07,3.49,2.37,6.73,2.44,11.04.04,2.54,2.21,9.14-2.22,8.78-1.18-.1-1.84-1.14-2.88-.99-1.13.16-1.85,1.58-2.72,1.83-2.71.79-7.83-.81-9.48-3.05Z"/>
      <path class="cls-25" d="M319.73,238.11c1.03-.61,3.93,1.49,3.93,2.68,0,.76-2.35,3.01-3.05,3.46-.18.11-3.6,1.64-3.81,1.69-10.85,2.49-17.53-11.6-10.4-19.41,3.77-4.14,10.05-5.22,14.26-1.25,1.9,1.79,5.19,8.4,2.78,10.31-.99.79-9.57.52-11.56.48-1.7-.03-3.13-1.44-3.27,1.23-.18,3.42,5.56,5.03,8.41,3.87,1.55-.63,2.45-2.9,2.7-3.05Z"/>
      <path class="cls-5" d="M184.17,223.15c3.19-.92,9.55.42,11.34,3.43,1.09,1.85,3.76,8.36.44,9.37-2.73.83-9.09-.3-12.41.07-3.98.44.45,5.1,2.53,5.51.95.19,2.92.14,3.87-.11,2.45-.63,4.4-5.94,6.89-1.65.92,1.58-.66,3.14-1.99,4.05-2.45,1.68-6.3,2.76-9.25,2.2-.24-.05-4.34-1.81-4.54-1.95-.19-.14-2.42-3.03-2.6-3.39-2.46-4.74-1.98-11.13,1.93-14.84.33-.32,3.58-2.62,3.81-2.69Z"/>
      <path class="cls-42" d="M105.77,223.16c3.92-1.02,9.32,1.39,11.61,4.64,2.82,4,2.73,9.07.18,13.17-6.19,9.94-22.01,3.97-20.61-7.14.35-2.81,2.2-7.3,4.68-8.81.27-.17,3.91-1.81,4.13-1.86Z"/>
      <path class="cls-19" d="M170.19,215.13c1.62-.48,4.47.36,4.64,2.16l-.5,26.99c-.5,2.72-5.59,2.18-5.52-.97.85-8.1-1.04-18.2,0-26.05.13-.98.3-1.81,1.38-2.13Z"/>
      <path class="cls-31" d="M241.75,166.54c-.17.04-.41-.07-.5,0l-18.48-14.5c2.74-1.97,7.72-7.99,9.19-11.05.3-.63,2.28-5.91,2.3-6.25.04-.73-.74-2.21-1.26-2.21h-29.47c-.05,0-.75-.7-.75-.75v-20.5c0-.05.7-.75.75-.75h53.44c1.15,0,2.16,6.83,2.26,8.23.67,8.97-1.86,22.26-5.5,30.53-2.96,6.73-7.44,11.63-12,17.24Z"/>
      <path class="cls-32" d="M214.13,219.64c1.04-.31,5.16-.25,6.29,0,4.13.93,5.83,7.01,1.63,9.42-1.29.74-7.92.91-8.82-.23-.83-1.05-1.1-8.61.9-9.2Z"/>
      <path class="cls-7" d="M129.74,227.15c12.67-2.58,12.05,15.11,2.38,15.11-8.91,0-9.6-13.64-2.38-15.11Z"/>
      <path class="cls-41" d="M93.67,229.54c1.76.55-.21,7.7-.88,9.12-1.46,3.11-7.73,6.82-11.13,6.9-12.18.28-20.34-13.21-13.53-23.58,3.97-6.05,12.65-8.02,19.15-5.04,1.35.62,3.92,2.32,2.68,3.89-1.47,1.85-3.57-1.02-5.41-1.65-4.94-1.71-9.74-.17-13.09,3.63-2.69,3.05-3.25,7.52-2.5,11.48s8.24,8.28,12.15,8.08c3.55-.19,10.44-4.44,9.83-8.56-.06-.43-.44-1.26-.77-1.26h-8.49c-.98,0-1.82-3-.5-3,2.48,0,10.88-.5,12.49,0Z"/>
      <path class="cls-10" d="M270.53,218.6c4.15-1.38,2.54,4.94,3.65,5.72.94.66,4.11-.41,4.52.98,1,3.38-5.02.5-4.98,3.5.59,2.56-1.46,11.81.97,13,1.25.61,3.02-.36,4,1-.43,3.76-3.79,2.6-6.1,1.1-5.36-3.49-1.29-14.58-3.59-16.4-.66-.52-2.55-.41-2.79-1.21-.67-2.29,2.67-1.37,3.28-2.21.83-1.13-.66-4.91,1.03-5.48Z"/>
      <path class="cls-14" d="M253.23,225.79c.86-3.04,3.32.78,4.25.77.75,0,5.41-4.22,6.2-1.71.94,2.98-2.66,2.4-3.95,2.95-.49.21-3.5,3.73-3.5,3.99v12.5c0,.99-3,.99-3,0v-18.5Z"/>
      <path class="cls-13" d="M164.79,224.59c.29.2.53,2.12.57,2.68.29,3.94.49,18.24-.82,21.22-2.84,6.44-13.43,6.66-17.19,1.31-.42-.6-.93-.92,0-1.52,2.41-1.58,4.29,2.6,6.38,3.14,4.2,1.1,9.56-2.31,8.62-7.13-.61-3.11-3.23,0-4.48.51-1.92.77-4.07.76-5.96-.06-5.03-2.21-6.73-7.63-5.91-12.83.06-.38,1.47-3.7,1.73-4.24.59-1.21,4.64-3.27,5.99-3.51,4.82-.87,6.23,2.43,7.38,2.42,1.08-.01,1.94-3.15,3.69-1.98Z"/>
      <path class="cls-40" d="M239.13,224.17c2.8-.38,5.19-.04,7.37,1.86,2.79,2.44,1.65,9.56,1.72,13.28.02,1.37,1.39,4.14-.83,4.68-1.02.25-1.8-1.2-3.36-.98-1.87.27-2.77,2.89-6.92,1.92-1.76-.41-4.8-2.97-5.21-4.78-1.4-6.19,4.78-8.98,10.08-8.09.98.17,2.57,1.93,3.54.5,1.27-1.86-1.54-5.45-3.12-5.92-2-.6-4.5.11-6.32.97-.56.27-2.75,2.78-3.32.67-.6-2.24,4.8-3.9,6.37-4.11Z"/>
      <path class="cls-33" d="M307.17,235.04c-.75,4.96,5.04,8.67,9.52,7.28,1.72-.54,4.16-5.31,5.73-2.27,1,1.93-3.84,4.25-5.35,4.66-9.77,2.64-15.14-7.57-11.28-15.79,3.05-6.49,14.27-6.67,16.53.22.33,1.01,1.42,5.91-.41,5.91h-14.73Z"/>
      <path class="cls-16" d="M196.3,235.04h-14.73c-1.35,0-.46,3.09.04,3.96,1.52,2.64,5.39,4.29,8.34,3.43,1.68-.48,4.57-5.36,6.12-2.39,1.63,3.14-7.09,5.24-9.51,5-5.03-.51-8.75-5.35-8.74-10.25,0-.6,1.05-5.77,1.26-6.24.36-.82,3.35-3.28,4.28-3.71,7.21-3.35,14.71,2.66,12.93,10.2Z"/>
      <path class="cls-23" d="M106.77,224.16c1.11-.22,2.15-.22,3.27,0,7.5,1.47,10.87,10.52,6.55,16.82-1.97,2.87-7.01,4.69-10.41,4.04-.27-.05-4.18-1.76-4.53-1.96-1.27-.77-3.46-4.84-3.7-6.29-.98-5.8,3.1-11.49,8.83-12.61Z"/>
      <path class="cls-35" d="M169.83,216.79c.38-1.24,4-.9,4,0v27c0,1.26-4,1.8-4,.5v-27.5Z"/>
      <path class="cls-18" d="M128.04,228.7c2.7-2.29,7.07-1.61,9.02,1.4,4.57,7.03-3.68,15.41-9.42,9.43-2.93-3.05-2.89-8.05.4-10.83Z"/>
      <path class="cls-24" d="M153.72,227.16c6.81-1.78,11.37,8.03,5.63,13.14-6.52,5.8-13.27-4.15-9.19-10.2.62-.92,2.54-2.67,3.56-2.94Z"/>
      <path class="cls-2" d="M239.14,234.17c11.35-1.48,6.41,9.93-1.62,8.36-4.41-.86-4.3-7.59,1.62-8.36Z"/>
      <path class="cls-36" d="M320.15,232.54h-11.74c-2.58,0,1.38-5.58,3.51-5.99,3.99-.77,8.91,1.31,8.23,5.99Z"/>
      <path class="cls-9" d="M185.68,227.16c1.11-.29,3.58-.33,4.61.14,1.66.76,5.03,5.46,1.41,5.14-1.59-.14-9.01-.37-9.41-.63-1.82-1.22,2.25-4.35,3.38-4.64Z"/>
      <path class="cls-39" d="M107.78,227.17c7.86-.93,10.18,10.24,3.38,13.88-9.38,5.02-14.68-12.55-3.38-13.88Z"/>
      <path class="cls-20" d="M170.33,217.29c.33-1.1,3.01-1.17,2.97.45l-.05,24.95c-.4,1.68-2.92,1.57-2.92.6v-26Z"/>
      <path class="cls-6" d="M244.63,238.94c-.1.18-3.04,2.44-3.24,2.5-1.01.3-4.22.37-4.88-.41-3.03-3.58.79-6.13,4.46-6,2.24.08,5.22,1.22,3.66,3.91Z"/>
      <path class="cls-43" d="M311.52,227.64c2.37-.7,8.65.34,7.6,3.59-.49,1.51-3.29.28-4.68.29-1.12,0-4.66.56-4.95.49-2.25-.58.92-4.03,2.04-4.36Z"/>
    </g>
    <text class="cls-4" transform="translate(83.3 354.44)"><tspan x="0" y="0">PREMIER 2025</tspan></text>
  </g>
</svg>